<svg id="account_circle_black_24dp" xmlns="http://www.w3.org/2000/svg" width="35.938" height="35.938" viewBox="0 0 35.938 35.938">
  <path id="Trazado_3" data-name="Trazado 3" d="M0,0H35.938V35.938H0Z" fill="none"/>
  <path id="Trazado_4" data-name="Trazado 4" d="M16.974,2A14.974,14.974,0,1,0,31.948,16.974,14.98,14.98,0,0,0,16.974,2ZM9.592,26.378c.644-1.348,4.567-2.665,7.382-2.665s6.753,1.318,7.382,2.665a11.868,11.868,0,0,1-14.765,0ZM26.5,24.207c-2.141-2.606-7.337-3.489-9.524-3.489s-7.382.883-9.524,3.489a11.979,11.979,0,1,1,19.047,0ZM16.974,7.99a5.241,5.241,0,1,0,5.241,5.241A5.228,5.228,0,0,0,16.974,7.99Zm0,7.487a2.246,2.246,0,1,1,2.246-2.246A2.243,2.243,0,0,1,16.974,15.477Z" transform="translate(0.995 0.995)" fill="#120052"/>
</svg>
